<svg width="41" height="37" viewBox="0 0 41 37" fill="none" xmlns="http://www.w3.org/2000/svg">
<path d="M2 26.75L12.8798 15.8334C13.6826 15.028 14.9841 15.028 15.7868 15.8334L24.6111 24.6875M24.6111 24.6875L21.5278 27.7812M24.6111 24.6875L28.2965 20.9896C29.0992 20.1842 30.4008 20.1842 31.2035 20.9896L39 28.8125M6.11111 35H34.8889C37.1595 35 39 33.1532 39 30.875V6.125C39 3.84682 37.1595 2 34.8889 2H6.11111C3.84061 2 2 3.84682 2 6.125V30.875C2 33.1532 3.84061 35 6.11111 35ZM33.8611 11.2812C33.8611 13.5594 32.0206 15.4062 29.75 15.4062C27.4794 15.4062 25.6389 13.5594 25.6389 11.2812C25.6389 9.00307 27.4794 7.15625 29.75 7.15625C32.0206 7.15625 33.8611 9.00307 33.8611 11.2812Z" stroke="black" stroke-width="3" stroke-linecap="round"/>
</svg>
