<svg width="9" height="7" viewBox="0 0 9 7" fill="none" xmlns="http://www.w3.org/2000/svg">
<path d="M3.37713 4.94375L7.2615 1.05938C7.35317 0.967708 7.46011 0.921875 7.58233 0.921875C7.70456 0.921875 7.8115 0.967708 7.90317 1.05938C7.99483 1.15104 8.04067 1.25997 8.04067 1.38617C8.04067 1.51236 7.99483 1.62114 7.90317 1.7125L3.69796 5.92917C3.60629 6.02083 3.49935 6.06667 3.37713 6.06667C3.2549 6.06667 3.14796 6.02083 3.05629 5.92917L1.08546 3.95833C0.993792 3.86667 0.949792 3.75789 0.953459 3.632C0.957125 3.50611 1.00494 3.39718 1.09692 3.30521C1.18889 3.21324 1.29782 3.1674 1.42371 3.16771C1.5496 3.16801 1.65838 3.21385 1.75004 3.30521L3.37713 4.94375Z" fill="white"/>
</svg>
