<svg width="13" height="13" viewBox="0 0 13 13" fill="none" xmlns="http://www.w3.org/2000/svg">
<g opacity="0.5">
<path d="M1.63 3.83984C1.63 2.73527 2.52543 1.83984 3.63 1.83984H9.63C10.7346 1.83984 11.63 2.73527 11.63 3.83984V8.83984C11.63 9.94441 10.7346 10.8398 9.63 10.8398H3.63C2.52543 10.8398 1.63 9.94441 1.63 8.83984V3.83984Z" stroke="#DDDDDD" stroke-width="2"/>
<mask id="mask0_1_616" style="mask-type:luminance" maskUnits="userSpaceOnUse" x="1" y="1" width="12" height="11">
<g opacity="0.5">
<path d="M1.63 3.83984C1.63 2.73527 2.52543 1.83984 3.63 1.83984H9.63C10.7346 1.83984 11.63 2.73527 11.63 3.83984V8.83984C11.63 9.94441 10.7346 10.8398 9.63 10.8398H3.63C2.52543 10.8398 1.63 9.94441 1.63 8.83984V3.83984Z" fill="#C4C4C4" stroke="#DDDDDD"/>
</g>
</mask>
<g mask="url(#mask0_1_616)">
<path d="M7.295 6.94598L25.6681 -9.41326C26.3545 -10.0245 25.9222 -11.1602 25.0031 -11.1602H-11.7431C-12.6622 -11.1602 -13.0945 -10.0245 -12.4081 -9.41326L5.96502 6.94598C6.3441 7.28351 6.91592 7.28351 7.295 6.94598Z" stroke="#DDDDDD" stroke-width="2"/>
</g>
</g>
</svg>
