<svg width="199" height="49" viewBox="0 0 199 49" fill="none" xmlns="http://www.w3.org/2000/svg">
<path d="M85.34 44.235H82.51L83.8 37.235C83.89 36.755 83.93 36.325 83.93 35.955C83.93 34.975 83.35 34.485 82.19 34.485C81.19 34.485 80.31 34.905 79.55 35.735L77.96 44.235H75.18L76.85 35.365C76.88 35.165 76.9 34.955 76.9 34.735C76.9 34.105 76.79 33.405 76.58 32.635L79.28 32.135L79.55 33.445C80.53 32.605 81.74 32.185 83.18 32.185C85.61 32.185 86.83 33.315 86.83 35.595C86.83 36.005 86.8 36.365 86.74 36.665L85.34 44.235ZM90.19 39.075V39.615C90.19 40.435 90.44 41.065 90.95 41.515C91.45 41.975 92.14 42.195 93.02 42.195C93.5 42.195 94.04 42.085 94.63 41.855C95.21 41.625 95.7 41.335 96.07 40.995L95.72 43.825C94.75 44.245 93.63 44.455 92.37 44.455C90.83 44.455 89.62 44.005 88.74 43.095C87.85 42.175 87.41 40.935 87.41 39.375C87.41 38.105 87.7 36.915 88.28 35.795C88.85 34.685 89.68 33.805 90.76 33.155C91.85 32.505 93.11 32.185 94.54 32.185C95.77 32.185 96.77 32.445 97.54 32.975C98.31 33.505 98.7 34.285 98.7 35.295C98.7 36.615 98.11 37.645 96.95 38.395C95.79 39.155 94.37 39.525 92.68 39.525C91.85 39.525 91.02 39.375 90.19 39.075ZM90.6 37.075C91.13 37.245 91.74 37.335 92.44 37.335C94.78 37.335 95.96 36.735 95.96 35.545C95.96 34.805 95.35 34.445 94.13 34.445C93.3 34.445 92.56 34.695 91.92 35.195C91.29 35.705 90.85 36.335 90.6 37.075ZM110.42 42.765L109.3 48.345H106.77L107.63 44.325C107.29 44.325 106.98 44.185 106.69 43.915C106.39 43.645 106.2 43.305 106.11 42.895C104.93 43.935 103.56 44.455 101.99 44.455C101.03 44.455 100.26 44.185 99.67 43.625C99.08 43.065 98.78 42.235 98.78 41.125C98.78 40.805 98.82 40.415 98.9 39.965L100.32 32.405H103.12L102.05 38.165C101.79 39.575 101.65 40.405 101.65 40.625C101.65 41.105 101.78 41.485 102.03 41.745C102.28 42.015 102.64 42.155 103.1 42.155C103.77 42.155 104.42 41.925 105.06 41.465C105.69 41.005 106.02 40.705 106.04 40.565L107.51 32.405H110.27L108.77 40.615C108.72 40.885 108.69 41.135 108.69 41.355C108.69 42.295 109.27 42.765 110.42 42.765ZM128.87 36.195L127.38 44.235H124.58L125.53 39.055C125.83 37.435 125.99 36.565 126.01 36.445C126.02 36.325 126.03 36.185 126.03 36.025C126.03 35.005 125.48 34.485 124.4 34.485C123.91 34.485 123.42 34.665 122.92 35.025C122.42 35.385 122.16 35.625 122.14 35.755L120.55 44.235H117.73L119.31 35.885L119.33 35.645C119.33 34.875 118.75 34.485 117.58 34.485C117.12 34.485 116.64 34.675 116.13 35.045C115.62 35.425 115.35 35.665 115.33 35.775L113.75 44.235H110.94L112.53 35.695C112.57 35.485 112.6 35.175 112.6 34.765C112.6 34.055 112.49 33.335 112.27 32.635L114.99 32.155C115.1 32.635 115.19 32.985 115.24 33.225C116.14 32.525 117.24 32.185 118.56 32.185C120.1 32.185 121.21 32.605 121.87 33.445C122.81 32.605 123.98 32.185 125.39 32.185C127.76 32.185 128.94 33.255 128.94 35.415C128.94 35.715 128.92 35.985 128.87 36.195ZM132.3 39.075V39.615C132.3 40.435 132.55 41.065 133.05 41.515C133.55 41.975 134.25 42.195 135.13 42.195C135.61 42.195 136.14 42.085 136.73 41.855C137.32 41.625 137.8 41.335 138.18 40.995L137.83 43.825C136.85 44.245 135.74 44.455 134.48 44.455C132.94 44.455 131.73 44.005 130.85 43.095C129.96 42.175 129.52 40.935 129.52 39.375C129.52 38.105 129.81 36.915 130.38 35.795C130.96 34.685 131.79 33.805 132.87 33.155C133.96 32.505 135.22 32.185 136.64 32.185C137.88 32.185 138.88 32.445 139.65 32.975C140.42 33.505 140.8 34.285 140.8 35.295C140.8 36.615 140.22 37.645 139.06 38.395C137.89 39.155 136.47 39.525 134.79 39.525C133.96 39.525 133.13 39.375 132.3 39.075ZM132.71 37.075C133.23 37.245 133.84 37.335 134.54 37.335C136.89 37.335 138.07 36.735 138.07 35.545C138.07 34.805 137.46 34.445 136.23 34.445C135.4 34.445 134.67 34.695 134.03 35.195C133.39 35.705 132.95 36.335 132.71 37.075ZM147.57 38.215L150.84 44.235H147.58L145.57 40.485L142.27 44.235H138.85L144.31 38.125L141.25 32.405H144.42L146.3 35.885L149.41 32.405H152.69L147.57 38.215ZM162.02 44.235H159.22L160.14 39.165H155.3L154.38 44.235H151.57L153.74 32.405H156.54L155.71 36.885H160.55L161.38 32.405H164.19L162.02 44.235ZM173.86 44.235H171.1L171.26 43.375C170.28 44.095 169.05 44.455 167.55 44.455C166.54 44.455 165.74 44.165 165.16 43.565C164.59 42.975 164.29 42.165 164.29 41.155C164.29 40.835 164.43 39.935 164.72 38.445L165.86 32.405H168.65C167.77 37.145 167.3 39.655 167.25 39.935C167.19 40.205 167.17 40.475 167.17 40.735C167.17 41.675 167.7 42.155 168.77 42.155C169.65 42.155 170.4 41.855 171 41.255C171.6 40.665 171.96 40.015 172.08 39.305L173.29 32.405H176.05L173.86 44.235ZM187.6 32.345L187.19 34.585C187 34.555 186.83 34.535 186.68 34.535C186.38 34.535 186.14 34.775 185.95 35.265C185.33 36.855 184.15 37.795 182.43 38.085C184.09 38.645 184.95 39.775 185.02 41.475C185.05 41.885 185.23 42.085 185.57 42.085C185.68 42.085 185.84 42.065 186.06 42.035L185.66 44.305C185.26 44.345 184.83 44.365 184.39 44.365C183.76 44.365 183.27 44.185 182.93 43.835C182.57 43.475 182.4 42.965 182.4 42.295C182.4 40.195 181.41 39.145 179.42 39.145H179.31L178.4 44.235H175.62L177.74 32.405H180.52L179.72 36.865H179.86C181.77 36.865 183.02 35.985 183.62 34.225C183.84 33.575 184.14 33.085 184.53 32.755C184.92 32.435 185.5 32.275 186.29 32.275C186.55 32.275 186.99 32.295 187.6 32.345ZM197.08 40.915C197.08 42.495 197.21 43.595 197.47 44.235H195.73C195.22 44.235 194.84 43.835 194.6 43.055C193.64 43.995 192.47 44.455 191.07 44.455C189.8 44.455 188.8 44.105 188.11 43.395C187.4 42.685 187.05 41.675 187.05 40.375C187.05 38.095 187.73 36.165 189.09 34.575C190.46 32.975 192.16 32.185 194.22 32.185C196.23 32.185 197.67 32.375 198.53 32.755L197.62 37.535C197.29 39.215 197.13 40.135 197.11 40.305C197.09 40.475 197.08 40.675 197.08 40.915ZM193.97 34.445C192.74 34.445 191.76 35.025 191.03 36.175C190.29 37.335 189.92 38.715 189.92 40.295C189.92 41.565 190.55 42.195 191.8 42.195C192.58 42.195 193.26 41.725 193.85 40.765C194.44 39.815 194.98 37.785 195.46 34.675C194.96 34.515 194.46 34.445 193.97 34.445Z" fill="#075B9A"/>
<path fill-rule="evenodd" clip-rule="evenodd" d="M55.05 8.91499H59.36V9.175V10.215V24.045H60.66V25.555V33.415H73.21V34.095H60.5H59.06V33.575V25.555H58.33V24.045V10.215H55.05V8.91499ZM32.89 12.245H47.53C49.08 17.845 50.64 23.435 52.2 29.035C52.3 29.025 52.41 29.015 52.52 29.015C53.8 29.015 54.95 29.535 55.79 30.375C56.62 31.205 57.14 32.365 57.14 33.645C57.14 34.915 56.62 36.075 55.79 36.905C54.95 37.745 53.8 38.265 52.52 38.265C51.24 38.265 50.09 37.745 49.25 36.905C48.41 36.075 47.9 34.915 47.9 33.645C47.9 33.255 47.94 32.885 48.03 32.525H38.59C38.68 32.885 38.73 33.255 38.73 33.645C38.73 34.915 38.21 36.075 37.38 36.905C36.54 37.745 35.38 38.265 34.11 38.265C32.83 38.265 31.68 37.745 30.84 36.905C30 36.075 29.49 34.915 29.49 33.645C29.49 32.365 30 31.205 30.84 30.375C30.9 30.315 30.96 30.255 31.02 30.205L28.34 29.235V24.695L31.79 23.445L32.71 12.245H32.89ZM34.11 31.875C35.08 31.875 35.87 32.665 35.87 33.645C35.87 34.615 35.08 35.405 34.11 35.405C33.14 35.405 32.34 34.615 32.34 33.645C32.34 32.665 33.14 31.875 34.11 31.875ZM52.52 31.875C53.49 31.875 54.28 32.665 54.28 33.645C54.28 34.615 53.49 35.405 52.52 35.405C51.54 35.405 50.76 34.615 50.76 33.645C50.76 32.665 51.54 31.875 52.52 31.875ZM36.8 30.945C36.11 30.255 35.16 29.835 34.11 29.835C33.06 29.835 32.11 30.255 31.42 30.945C30.73 31.635 30.3 32.595 30.3 33.645C30.3 34.695 30.73 35.645 31.42 36.335C32.11 37.025 33.06 37.455 34.11 37.455C35.16 37.455 36.11 37.025 36.8 36.335C37.49 35.645 37.92 34.695 37.92 33.645C37.92 32.595 37.49 31.635 36.8 30.945ZM55.21 30.945C54.52 30.255 53.57 29.835 52.52 29.835C51.47 29.835 50.51 30.255 49.82 30.945C49.13 31.635 48.71 32.595 48.71 33.645C48.71 34.695 49.13 35.645 49.82 36.335C50.51 37.025 51.47 37.455 52.52 37.455C53.57 37.455 54.52 37.025 55.21 36.335C55.9 35.645 56.33 34.695 56.33 33.645C56.33 32.595 55.9 31.635 55.21 30.945ZM47.44 24.775L49.54 27.835C49.6 27.825 49.66 27.815 49.73 27.805C49.84 27.795 49.95 27.795 50.06 27.795C50.12 27.795 50.19 27.795 50.25 27.795L46.36 13.785H34.13L32.94 28.385H36.91L37.66 26.125C37.78 25.545 37.73 25.485 37.48 25.125C37.41 25.035 37.33 24.915 37.22 24.755C36.65 23.875 35.74 22.585 35.14 21.735C34.87 21.345 34.66 21.045 34.56 20.905C34.47 20.775 34.45 20.615 34.47 20.475C34.5 20.325 34.58 20.185 34.71 20.095C34.84 20.005 35 19.975 35.15 20.005C35.29 20.025 35.43 20.105 35.52 20.235L38.32 24.105C38.88 24.885 38.97 25.255 39.15 25.975C39.19 26.135 39.23 26.305 39.28 26.495L39.5 27.315L43.49 27.465C43.66 27.475 43.81 27.565 43.92 27.695C44.01 27.825 44.07 27.985 44.07 28.165C44.07 28.245 44.06 28.315 44.04 28.385H48.46C48.49 28.335 48.52 28.285 48.57 28.235C48.61 28.195 48.65 28.155 48.7 28.115L46.74 25.255C46.49 25.395 46.25 25.505 46.04 25.565C45.66 25.685 45.34 25.655 45.2 25.445C45.06 25.235 45.14 24.925 45.39 24.605C45.58 24.355 45.89 24.075 46.26 23.815H46.27C46.65 23.555 47.02 23.365 47.33 23.275C47.71 23.155 48.03 23.195 48.17 23.405C48.32 23.615 48.23 23.915 47.98 24.235C47.85 24.405 47.67 24.595 47.44 24.775ZM46.54 24.215C46.21 24.445 45.94 24.695 45.77 24.905C45.66 25.055 45.59 25.155 45.6 25.165C45.61 25.185 45.73 25.155 45.9 25.105C46.17 25.025 46.49 24.855 46.83 24.635C47.16 24.395 47.43 24.155 47.6 23.935C47.71 23.795 47.78 23.695 47.77 23.675C47.76 23.665 47.65 23.695 47.47 23.745C47.21 23.825 46.88 23.985 46.54 24.215Z" fill="#2B2A29"/>
<path fill-rule="evenodd" clip-rule="evenodd" d="M74.36 2.915L73.36 10.485C65.18 6.765 48.05 5.89499 39.15 6.77499C23.76 8.29499 12.16 15.055 12.16 23.155C12.16 30.485 21.26 37.115 34.46 39.365C42.05 40.655 52.56 40.145 60.11 38.915C64.68 38.175 68.82 37.015 72.33 35.535V41.235C64.87 43.955 55.68 45.565 45.72 45.565C20.85 45.565 0.690002 35.535 0.690002 23.155C0.690002 14.535 10.47 7.055 24.8 3.305C38.84 -0.365005 60.28 -0.00500393 74.36 2.915Z" fill="#075B9A"/>
</svg>
