<svg width="9" height="15" viewBox="0 0 9 15" fill="none" xmlns="http://www.w3.org/2000/svg">
<path fill-rule="evenodd" clip-rule="evenodd" d="M5.00547 10.0704C5.03523 10.0654 5.065 10.0602 5.09446 10.055C5.23284 10.0308 5.36422 10.0078 5.45427 10.0192C5.64834 10.0439 5.93617 10.4252 6.18937 10.8811C6.46445 11.3763 6.66724 11.8235 6.65818 12.1139C6.64913 12.4043 6.18937 12.8771 5.93592 12.8788C5.68247 12.8805 5.5076 12.8788 5.04112 12.8311C4.57463 12.7834 3.90478 12.3339 3.7129 12.03C3.67145 11.9643 3.63253 11.9022 3.59479 11.8389C3.4578 11.6092 3.33642 11.3643 3.16686 10.8811C3.0418 10.5246 2.93996 10.1599 2.86133 9.7899C2.80519 9.52574 2.76089 9.25891 2.72842 8.99053C2.68387 8.62224 2.6616 8.25103 2.66161 7.87983C2.66162 7.50863 2.68392 7.13744 2.72849 6.76915C2.75966 6.51167 2.80171 6.2556 2.85465 6.00195C2.93418 5.62094 3.03827 5.24536 3.16694 4.87859C3.33089 4.41124 3.44977 4.15887 3.5813 3.93774C3.62326 3.8672 3.6665 3.79984 3.7129 3.7297C3.90478 3.43965 4.54727 2.97621 5.04112 2.92852C5.48253 2.8859 5.67034 2.88383 5.86558 2.88168C5.88878 2.88142 5.91208 2.88116 5.93592 2.88084C6.16046 2.87777 6.65551 3.34384 6.65818 3.64576C6.66085 3.94768 6.46445 4.38335 6.18937 4.87859C5.93617 5.33445 5.69415 5.71209 5.45427 5.74042C5.33304 5.75474 5.16322 5.72587 5.00546 5.69906L5.00256 5.69858C4.8493 5.67253 4.70778 5.64868 4.63376 5.66862C4.48315 5.70918 4.2097 5.81563 4.1558 6.18944C4.15323 6.20727 4.15076 6.22436 4.14839 6.24079C4.10107 6.56869 4.09251 6.628 4.07186 6.87942C4.04436 7.21417 4.03061 7.54702 4.03061 7.87987C4.03061 8.2127 4.04436 8.54554 4.07186 8.88025L4.07313 8.89581C4.0939 9.14867 4.10297 9.25915 4.1558 9.57024C4.2097 9.88763 4.40548 10.0555 4.63989 10.0927C4.74235 10.109 4.87377 10.0923 5.00547 10.0704ZM6.0346 7.6593C6.80984 7.44284 7.25904 6.87301 7.38767 6.70984L7.38892 6.70825C7.61964 6.41558 7.8101 6.08246 7.93931 5.84984C8.09379 5.57172 8.25828 5.254 8.38729 4.93043C8.50312 4.63989 8.66446 4.16778 8.65968 3.62807C8.65462 3.05599 8.43648 2.61588 8.30427 2.38955C8.15266 2.12999 7.97191 1.91239 7.80373 1.74233C7.63569 1.5724 7.42913 1.39831 7.19183 1.25239C7.02875 1.15212 6.55058 0.871421 5.90852 0.880207C5.88604 0.880514 5.86351 0.880772 5.84067 0.881033C5.62141 0.883541 5.37256 0.886388 4.84867 0.936974C4.14667 1.00476 3.54762 1.32017 3.18248 1.55448C2.82529 1.7837 2.35717 2.15167 2.04334 2.62608C1.75447 3.06276 1.54526 3.45501 1.27813 4.21648C0.864233 5.39633 0.660077 6.64125 0.660034 7.87977C0.659991 9.11839 0.864095 10.3634 1.27809 11.5433C1.55323 12.3274 1.76378 12.6915 2.02013 13.0977C2.35312 13.6252 2.86654 14.0064 3.21175 14.2224C3.57358 14.4489 4.16346 14.7527 4.8375 14.8216C5.37993 14.877 5.62735 14.8817 5.94927 14.8796C6.55881 14.8755 7.01473 14.6209 7.21247 14.4979C7.4604 14.3435 7.67012 14.1604 7.83652 13.9862C8.00395 13.8108 8.17554 13.5942 8.3182 13.3428C8.44237 13.1239 8.64215 12.7099 8.65879 12.1762C8.67652 11.6079 8.50018 11.11 8.389 10.8319C8.25941 10.5077 8.09363 10.1876 7.93931 9.90981C7.77978 9.62261 7.57806 9.30008 7.34544 9.0174C7.23072 8.87798 7.06887 8.69945 6.86203 8.53484C6.7239 8.42492 6.43997 8.21821 6.03463 8.10192C6.03138 7.95433 6.03137 7.80689 6.0346 7.6593Z" fill="#888888"/>
</svg>
