<svg width="11" height="15" viewBox="0 0 11 15" fill="none" xmlns="http://www.w3.org/2000/svg">
<path fill-rule="evenodd" clip-rule="evenodd" d="M10.97 5.5625C10.97 6.87249 10.4662 8.06481 9.64184 8.9563L5.85411 13.3865C5.55473 13.7457 4.97 13.534 4.97 13.0664V10.4625C2.68776 9.99921 0.970001 7.98146 0.970001 5.5625C0.970001 2.80108 3.20858 0.5625 5.97 0.5625C8.73142 0.5625 10.97 2.80108 10.97 5.5625ZM5.97 2.5625C7.62685 2.5625 8.97 3.90565 8.97 5.5625C8.97 7.21936 7.62685 8.5625 5.97 8.5625C4.31315 8.5625 2.97 7.21936 2.97 5.5625C2.97 3.90565 4.31315 2.5625 5.97 2.5625Z" fill="#888888"/>
</svg>
