<svg width="19" height="19" viewBox="0 0 19 19" fill="none" xmlns="http://www.w3.org/2000/svg">
<path fill-rule="evenodd" clip-rule="evenodd" d="M8.57807 0.502441C4.15979 0.502441 0.578064 4.08416 0.578064 8.50244C0.578064 12.9207 4.15979 16.5024 8.57807 16.5024C10.4268 16.5024 12.129 15.8754 13.4837 14.8223L16.8709 18.2095C17.2615 18.6001 17.8946 18.6001 18.2852 18.2095C18.6757 17.819 18.6757 17.1859 18.2852 16.7953L14.8979 13.4081C15.951 12.0534 16.578 10.3512 16.578 8.50244C16.578 4.08416 12.9963 0.502441 8.57807 0.502441ZM2.57807 8.50244C2.57807 5.18873 5.26436 2.50244 8.57807 2.50244C11.8918 2.50244 14.578 5.18873 14.578 8.50244C14.578 11.8161 11.8918 14.5024 8.57807 14.5024C5.26436 14.5024 2.57807 11.8161 2.57807 8.50244Z" fill="#888888"/>
</svg>
