<svg width="241" height="31" viewBox="0 0 241 31" fill="none" xmlns="http://www.w3.org/2000/svg">
<path fill-rule="evenodd" clip-rule="evenodd" d="M172.999 0.553833H181.692V11.2642H194.719V0.553833H203.411V30.5057H194.719V18.0103H181.692V30.5057H172.999V0.553833Z" fill="#1B2E61"/>
<path fill-rule="evenodd" clip-rule="evenodd" d="M120.393 13.5128H136.357C136.341 13.7831 136.341 14.054 136.357 14.3242C136.357 18.5898 136.357 21.7658 136.073 23.8986C136.16 25.2804 135.768 26.6504 134.959 27.7865C134.151 28.9226 132.975 29.7583 131.62 30.1579C130.296 30.5045 128.939 30.7143 127.57 30.7838C126.054 30.7838 123.733 30.9461 120.63 30.9461C117.837 31.0117 115.042 30.8722 112.269 30.5288C110.849 30.3506 109.509 29.7796 108.409 28.8829C107.734 28.2298 107.216 27.4379 106.893 26.5646C106.507 25.4165 106.276 24.2242 106.206 23.0177C106.064 21.6576 105.993 18.9685 105.993 14.9502C105.993 12.2146 105.993 10.1514 106.182 8.73723C106.246 7.48058 106.461 6.23565 106.822 5.02802C107.044 4.0009 107.564 3.05844 108.321 2.31402C109.077 1.56961 110.037 1.05496 111.085 0.831978C114.638 0.191364 118.251 -0.0806004 121.862 0.0205923C124.155 -0.0063509 126.448 0.0865089 128.731 0.29878C130.148 0.439954 131.542 0.759415 132.876 1.24926C133.781 1.67219 134.554 2.32583 135.112 3.14163C135.671 3.95742 135.994 4.90529 136.05 5.88577C136.277 7.06206 136.373 8.25926 136.334 9.45589H127.902C127.902 8.59813 127.902 8.92269 127.902 8.62132C127.842 8.33651 127.693 8.07708 127.475 7.87948C126.777 7.41582 125.951 7.17306 125.107 7.184C123.863 7.06787 122.614 7.02143 121.365 7.0449C120.097 6.98979 118.826 7.0675 117.575 7.27672C116.801 7.3165 116.061 7.60126 115.467 8.08812C115.003 8.65832 114.73 9.35444 114.685 10.0818C114.513 11.8152 114.442 13.5567 114.472 15.2979C114.438 17.0932 114.509 18.8889 114.685 20.6762C114.72 21.441 114.993 22.1771 115.467 22.7859C115.853 23.1891 116.374 23.444 116.935 23.5045C118.395 23.6947 119.869 23.7645 121.341 23.7132C122.81 23.7574 124.281 23.7187 125.746 23.5972C126.315 23.5882 126.873 23.4535 127.381 23.2031C127.554 23.1164 127.706 22.9953 127.828 22.8476C127.951 22.6999 128.04 22.5288 128.091 22.3454C128.265 21.4753 128.337 20.5886 128.304 19.7026V18.8912H120.488L120.393 13.5128Z" fill="#1B2E61"/>
<path fill-rule="evenodd" clip-rule="evenodd" d="M71.0801 0.553833H85.0308L93.4866 21.905H93.8892V0.553833H102.937V30.5057H89.1284L80.578 9.15456H80.0569L80.1043 30.5057H71.0801V0.553833Z" fill="#1B2E61"/>
<path fill-rule="evenodd" clip-rule="evenodd" d="M0 0.553833H8.69258V11.2642H21.6959V0.553833H30.4122V30.5057H21.6959V18.0103H8.69258V30.5057H0V0.553833Z" fill="#1B2E61"/>
<path fill-rule="evenodd" clip-rule="evenodd" d="M33.4912 30.5057H42.847L50.1658 8.85318H51.3501L56.0398 23.8987H49.2658L51.8712 30.5752H67.9773L57.603 0.553833H43.8418L33.4912 30.5057Z" fill="#1B2E61"/>
<path fill-rule="evenodd" clip-rule="evenodd" d="M206.514 30.5057H215.846L223.165 8.85318H224.373L229.063 23.8987H222.265L224.894 30.5752H241L230.602 0.553833H216.864L206.514 30.5057Z" fill="#1B2E61"/>
<path fill-rule="evenodd" clip-rule="evenodd" d="M161.061 20.2822H169.754C169.754 21.7195 169.754 22.6004 169.754 23.1104C169.85 24.5257 169.564 25.9407 168.925 27.2137C168.609 27.9402 168.126 28.5857 167.514 29.1002C166.902 29.6148 166.177 29.9846 165.396 30.1811C162.412 30.8308 159.354 31.0958 156.301 30.9693C151.777 30.9693 148.532 30.9693 146.59 30.6448C145.065 30.5465 143.583 30.1105 142.255 29.3697C141.381 28.8092 140.703 28.0002 140.313 27.0515C139.917 25.7664 139.725 24.4294 139.744 23.0872C139.744 21.7195 139.602 19.2853 139.602 15.7152C139.602 12.1451 139.602 9.7341 139.744 8.20405C139.81 6.99488 140.016 5.79701 140.36 4.63393C140.655 3.73242 141.18 2.91909 141.884 2.27029C142.588 1.62148 143.45 1.15847 144.387 0.92473C148.426 0.21474 152.532 -0.0650832 156.632 0.0901565C158.862 0.057287 161.091 0.142415 163.311 0.345166C164.481 0.456694 165.617 0.795595 166.651 1.34202C167.772 1.98546 168.615 3.00779 169.02 4.21665C169.551 5.56745 169.777 7.01466 169.683 8.45906C169.683 8.59815 169.683 9.10816 169.683 9.96592H160.777C160.809 9.58937 160.76 9.21049 160.635 8.85316C160.566 8.55312 160.438 8.26943 160.256 8.01858C159.625 7.60169 158.886 7.36858 158.124 7.3463C156.91 7.1688 155.681 7.09897 154.453 7.13765C153.344 7.09328 152.234 7.15539 151.137 7.32311C150.467 7.38618 149.832 7.6446 149.313 8.06495C148.779 8.72984 148.465 9.53872 148.413 10.3832C148.21 12.1843 148.123 13.9961 148.153 15.8079C148.116 17.5575 148.195 19.3076 148.39 21.0472C148.435 21.7847 148.745 22.4827 149.266 23.0177C149.805 23.4896 150.487 23.7747 151.208 23.8291C152.287 24.0095 153.383 24.0794 154.477 24.0377C155.888 24.0529 157.299 23.9521 158.693 23.7364C159.39 23.7069 160.053 23.4357 160.564 22.9713C160.99 22.4613 161.203 22.1599 161.227 20.2822" fill="#1B2E61"/>
</svg>
